<?xml version="1.0" ?><svg viewBox="0 0 64 64" xmlns="http://www.w3.org/2000/svg"><defs><style>.cls-1{fill:#f1f9ff;}.cls-2{fill:#ff5174;}.cls-3{fill:#ff4869;}.cls-4{fill:#ffef3f;}.cls-5{fill:#465e85;}</style></defs><g id="Temperature"><path class="cls-1" d="M18,4a6.13,6.13,0,0,0-6.14,6.14V32.3a1.87,1.87,0,0,1-.94,1.63,14,14,0,1,0,14.17,0,1.89,1.89,0,0,1-.94-1.63c0-4.64,0-22.16,0-22.16A6.13,6.13,0,0,0,18,4Z"/><path class="cls-2" d="M18,7.91a2.18,2.18,0,0,0-2.18,2.18V35.54a.89.89,0,0,1-.66.86,10,10,0,1,0,5.68,0,.9.9,0,0,1-.65-.86c0-4.12,0-25.45,0-25.45A2.18,2.18,0,0,0,18,7.91Z"/><path class="cls-3" d="M23.58,45.93A5.58,5.58,0,1,1,18,40.36,5.58,5.58,0,0,1,23.58,45.93Z"/><path class="cls-4" d="M50.18,22.1a6.24,6.24,0,1,1-6.24-6.24A6.24,6.24,0,0,1,50.18,22.1Z"/><path class="cls-4" d="M43.94,6a1.43,1.43,0,0,1,1.43,1.43V11a1.43,1.43,0,0,1-2.86,0V7.46A1.43,1.43,0,0,1,43.94,6Z"/><path class="cls-4" d="M43.94,31.77a1.43,1.43,0,0,1,1.43,1.43v3.53a1.43,1.43,0,0,1-2.86,0V33.2A1.43,1.43,0,0,1,43.94,31.77Z"/><path class="cls-4" d="M60,22.1a1.43,1.43,0,0,1-1.43,1.43H55a1.43,1.43,0,0,1,0-2.86h3.53A1.42,1.42,0,0,1,60,22.1Z"/><path class="cls-4" d="M34.26,22.1a1.42,1.42,0,0,1-1.42,1.43H29.31a1.43,1.43,0,1,1,0-2.86h3.53A1.41,1.41,0,0,1,34.26,22.1Z"/><path class="cls-4" d="M55.3,10.74a1.42,1.42,0,0,1,0,2l-2.5,2.5a1.43,1.43,0,1,1-2-2l2.49-2.49A1.44,1.44,0,0,1,55.3,10.74Z"/><path class="cls-4" d="M37.1,28.94a1.42,1.42,0,0,1,0,2l-2.5,2.49a1.43,1.43,0,0,1-2-2l2.5-2.49A1.42,1.42,0,0,1,37.1,28.94Z"/><path class="cls-4" d="M55.3,33.45a1.44,1.44,0,0,1-2,0L50.78,31a1.43,1.43,0,0,1,2-2l2.5,2.49A1.42,1.42,0,0,1,55.3,33.45Z"/><path class="cls-4" d="M37.1,15.26a1.42,1.42,0,0,1-2,0l-2.5-2.5a1.43,1.43,0,0,1,2-2l2.5,2.49A1.44,1.44,0,0,1,37.1,15.26Z"/><path class="cls-5" d="M24.14,10.43v2H20.7a1,1,0,1,1,0-2Zm0,6.05v2H20.7a1,1,0,0,1,0-2Zm0,6v2H20.7a1,1,0,0,1,0-2Zm0,6v2H20.7a1,1,0,0,1,0-2Z"/></g></svg>